<svg width="30" height="30" viewBox="0 0 30 30" fill="none" xmlns="http://www.w3.org/2000/svg">
<path fill-rule="evenodd" clip-rule="evenodd" d="M14.7012 29.6667C22.8204 29.6667 29.4024 23.1002 29.4024 15C29.4024 6.89984 22.8204 0.333344 14.7012 0.333344C6.58192 0.333344 0 6.89984 0 15C0 23.1002 6.58192 29.6667 14.7012 29.6667ZM19.2874 7.1657C19.5107 6.37458 18.7411 5.90678 18.0383 6.4063L8.2276 13.379C7.46541 13.9208 7.5853 15 8.40769 15H10.9911V14.9801H16.0261L11.9235 16.4242L10.1149 22.8344C9.89169 23.6255 10.6612 24.0933 11.364 23.5937L21.1748 16.621C21.9369 16.0793 21.817 15 20.9947 15H17.077L19.2874 7.1657Z" fill="#BCBFC2"/>
</svg>
