<svg width="26" height="28" viewBox="0 0 26 28" fill="none" xmlns="http://www.w3.org/2000/svg">
<path fill-rule="evenodd" clip-rule="evenodd" d="M13.6665 0.298609C13.3326 0.229362 12.9883 0.229362 12.6544 0.298609C12.2685 0.378655 11.9235 0.573495 11.6493 0.728395L11.5745 0.770506L2.28012 5.97772C2.25443 5.99212 2.22795 6.00683 2.20082 6.0219C1.91052 6.18315 1.54551 6.38589 1.2652 6.69264C1.02285 6.95784 0.839448 7.27217 0.727257 7.61461C0.59749 8.01068 0.599008 8.43092 0.600216 8.76514C0.600329 8.79638 0.600439 8.82686 0.600439 8.85651V19.1378C0.600439 19.1674 0.600329 19.1979 0.600216 19.2292C0.599008 19.5634 0.59749 19.9836 0.727257 20.3797C0.839449 20.7221 1.02285 21.0365 1.2652 21.3017C1.54551 21.6084 1.91052 21.8112 2.20082 21.9724C2.22795 21.9875 2.25443 22.0022 2.28013 22.0166L11.5745 27.2238L11.6493 27.2659C11.9235 27.4208 12.2685 27.6156 12.6544 27.6957C12.9883 27.7649 13.3326 27.7649 13.6665 27.6957C14.0524 27.6156 14.3974 27.4208 14.6716 27.2659L14.7464 27.2238L24.0408 22.0166C24.0521 22.0102 24.0637 22.0038 24.0753 21.9973C24.09 21.9891 24.1049 21.9808 24.1201 21.9724C24.4104 21.8112 24.7754 21.6084 25.0557 21.3017C25.2981 21.0365 25.4815 20.7221 25.5937 20.3797C25.7234 19.9836 25.7219 19.5634 25.7207 19.2292C25.7206 19.1979 25.7205 19.1674 25.7205 19.1378V8.8565C25.7205 8.82686 25.7206 8.79638 25.7207 8.76515C25.7219 8.43092 25.7234 8.01068 25.5937 7.6146C25.4815 7.27217 25.2981 6.95784 25.0557 6.69264C24.7754 6.38589 24.4104 6.18314 24.1201 6.02189L24.1191 6.02132C24.0923 6.00645 24.0662 5.99193 24.0408 5.97772L14.7464 0.770505L14.6716 0.728391C14.3974 0.573492 14.0524 0.378654 13.6665 0.298609ZM12.7945 2.98496C12.9848 2.87832 13.082 2.82444 13.1545 2.78918L13.1605 2.78628L13.1665 2.78918C13.2389 2.82444 13.3361 2.87832 13.5264 2.98495L21.8782 7.66402L13.1604 12.5482L4.44272 7.66405L12.7945 2.98496ZM3.11244 9.81668L11.9044 14.7424L11.9044 24.5107L3.50006 19.8021C3.29916 19.6896 3.19659 19.6315 3.12463 19.5853L3.11855 19.5813L3.1181 19.5741C3.11296 19.4882 3.11244 19.3696 3.11244 19.1378V9.81668Z" fill="#BCBFC2"/>
</svg>
