<svg width="40" height="41" viewBox="0 0 40 41" fill="none" xmlns="http://www.w3.org/2000/svg">
<g filter="url(#filter0_dd_1_35212)">
<g clip-path="url(#clip0_1_35212)">
<rect x="4" y="3" width="32" height="32" rx="16" fill="#196264"/>
<g opacity="0.5">
<path opacity="0.32" d="M26.5518 13.5095C26.5412 13.4776 26.5208 13.4499 26.4936 13.4302C26.4663 13.4106 26.4336 13.4 26.4 13.4C26.3664 13.4 26.3336 13.4106 26.3064 13.4302C26.2791 13.4499 26.2588 13.4776 26.2482 13.5095L26.1389 13.8376C26.131 13.8612 26.1178 13.8827 26.1002 13.9002C26.0826 13.9178 26.0612 13.9311 26.0376 13.9389L25.7095 14.0482C25.6776 14.0588 25.6499 14.0791 25.6302 14.1064C25.6106 14.1336 25.6 14.1664 25.6 14.2C25.6 14.2336 25.6106 14.2663 25.6302 14.2936C25.6499 14.3209 25.6776 14.3412 25.7095 14.3518L26.0376 14.4612C26.0612 14.4691 26.0826 14.4823 26.1002 14.4998C26.1178 14.5174 26.131 14.5388 26.1389 14.5623L26.2482 14.8905C26.2588 14.9223 26.2791 14.9501 26.3064 14.9698C26.3336 14.9894 26.3664 15 26.4 15C26.4336 15 26.4663 14.9894 26.4936 14.9698C26.5208 14.9501 26.5412 14.9223 26.5518 14.8905L26.6611 14.5623C26.6689 14.5388 26.6821 14.5173 26.6997 14.4997C26.7173 14.4822 26.7387 14.4689 26.7623 14.4611L27.0904 14.3518C27.1223 14.3412 27.1501 14.3209 27.1697 14.2936C27.1894 14.2663 27.2 14.2336 27.2 14.2C27.2 14.1664 27.1894 14.1336 27.1697 14.1064C27.1501 14.0791 27.1223 14.0588 27.0904 14.0482L26.7623 13.9389C26.7387 13.9311 26.7173 13.9178 26.6997 13.9002C26.6821 13.8827 26.6689 13.8612 26.6611 13.8376L26.5518 13.5095Z" fill="white"/>
<g opacity="0.09" filter="url(#filter1_f_1_35212)">
<path d="M30.5518 3.90953C30.5412 3.87764 30.5208 3.84989 30.4936 3.83023C30.4663 3.81057 30.4336 3.79999 30.4 3.79999C30.3664 3.79999 30.3336 3.81057 30.3064 3.83023C30.2791 3.84989 30.2588 3.87764 30.2482 3.90953L30.1389 4.23764C30.131 4.26123 30.1178 4.28266 30.1002 4.30024C30.0826 4.31782 30.0612 4.33105 30.0376 4.33891L29.7095 4.44817C29.6776 4.45876 29.6499 4.47913 29.6302 4.50638C29.6106 4.53363 29.6 4.56638 29.6 4.59999C29.6 4.63359 29.6106 4.66634 29.6302 4.69359C29.6499 4.72084 29.6776 4.74121 29.7095 4.75181L30.0376 4.86123C30.0612 4.86906 30.0826 4.88228 30.1002 4.89983C30.1178 4.91738 30.131 4.93878 30.1389 4.96234L30.2482 5.29045C30.2588 5.32234 30.2791 5.35008 30.3064 5.36974C30.3336 5.38941 30.3664 5.39999 30.4 5.39999C30.4336 5.39999 30.4663 5.38941 30.4936 5.36974C30.5208 5.35008 30.5412 5.32234 30.5518 5.29045L30.6611 4.96234C30.6689 4.93875 30.6821 4.91732 30.6997 4.89974C30.7173 4.88216 30.7387 4.86892 30.7623 4.86107L31.0904 4.75181C31.1223 4.74121 31.1501 4.72084 31.1697 4.69359C31.1894 4.66634 31.2 4.63359 31.2 4.59999C31.2 4.56638 31.1894 4.53363 31.1697 4.50638C31.1501 4.47913 31.1223 4.45876 31.0904 4.44817L30.7623 4.33891C30.7387 4.33105 30.7173 4.31782 30.6997 4.30024C30.6821 4.28266 30.6689 4.26123 30.6611 4.23764L30.5518 3.90953Z" fill="white"/>
</g>
<path opacity="0.11" d="M12.9518 15.9095C12.9412 15.8776 12.9209 15.8499 12.8936 15.8302C12.8664 15.8106 12.8336 15.8 12.8 15.8C12.7664 15.8 12.7336 15.8106 12.7064 15.8302C12.6791 15.8499 12.6588 15.8776 12.6482 15.9095L12.5389 16.2376C12.5311 16.2612 12.5178 16.2827 12.5002 16.3002C12.4827 16.3178 12.4612 16.3311 12.4377 16.3389L12.1095 16.4482C12.0777 16.4588 12.0499 16.4791 12.0302 16.5064C12.0106 16.5336 12 16.5664 12 16.6C12 16.6336 12.0106 16.6663 12.0302 16.6936C12.0499 16.7208 12.0777 16.7412 12.1095 16.7518L12.4377 16.8612C12.4612 16.8691 12.4826 16.8823 12.5002 16.8998C12.5178 16.9174 12.531 16.9388 12.5389 16.9623L12.6482 17.2904C12.6588 17.3223 12.6791 17.3501 12.7064 17.3697C12.7336 17.3894 12.7664 17.4 12.8 17.4C12.8336 17.4 12.8664 17.3894 12.8936 17.3697C12.9209 17.3501 12.9412 17.3223 12.9518 17.2904L13.0611 16.9623C13.0689 16.9387 13.0822 16.9173 13.0998 16.8997C13.1173 16.8822 13.1388 16.8689 13.1623 16.8611L13.4905 16.7518C13.5223 16.7412 13.5501 16.7208 13.5698 16.6936C13.5894 16.6663 13.6 16.6336 13.6 16.6C13.6 16.5664 13.5894 16.5336 13.5698 16.5064C13.5501 16.4791 13.5223 16.4588 13.4905 16.4482L13.1623 16.3389C13.1388 16.3311 13.1173 16.3178 13.0998 16.3002C13.0822 16.2827 13.0689 16.2612 13.0611 16.2376L12.9518 15.9095Z" fill="white"/>
<path opacity="0.45" d="M4.15183 19.9095C4.14124 19.8776 4.12087 19.8499 4.09362 19.8302C4.06637 19.8106 4.03362 19.8 4.00001 19.8C3.96641 19.8 3.93366 19.8106 3.90641 19.8302C3.87916 19.8499 3.85879 19.8776 3.84819 19.9095L3.73893 20.2376C3.73108 20.2612 3.71784 20.2827 3.70026 20.3002C3.68268 20.3178 3.66125 20.3311 3.63766 20.3389L3.30955 20.4482C3.27766 20.4588 3.24992 20.4791 3.23026 20.5064C3.21059 20.5336 3.20001 20.5664 3.20001 20.6C3.20001 20.6336 3.21059 20.6663 3.23026 20.6936C3.24992 20.7208 3.27766 20.7412 3.30955 20.7518L3.63766 20.8612C3.66123 20.8691 3.68266 20.8823 3.70023 20.8998C3.71781 20.9174 3.73106 20.9388 3.73893 20.9623L3.84819 21.2904C3.85879 21.3223 3.87916 21.3501 3.90641 21.3697C3.93366 21.3894 3.96641 21.4 4.00001 21.4C4.03362 21.4 4.06637 21.3894 4.09362 21.3697C4.12087 21.3501 4.14124 21.3223 4.15183 21.2904L4.26109 20.9623C4.26895 20.9387 4.28218 20.9173 4.29976 20.8997C4.31734 20.8822 4.33877 20.8689 4.36236 20.8611L4.69047 20.7518C4.72236 20.7412 4.75011 20.7208 4.76977 20.6936C4.78943 20.6663 4.80001 20.6336 4.80001 20.6C4.80001 20.5664 4.78943 20.5336 4.76977 20.5064C4.75011 20.4791 4.72236 20.4588 4.69047 20.4482L4.36236 20.3389C4.33877 20.3311 4.31734 20.3178 4.29976 20.3002C4.28218 20.2827 4.26895 20.2612 4.26109 20.2376L4.15183 19.9095Z" fill="white"/>
<path opacity="0.2" d="M28.9518 11.1095C28.9412 11.0777 28.9209 11.0499 28.8936 11.0302C28.8664 11.0106 28.8336 11 28.8 11C28.7664 11 28.7336 11.0106 28.7064 11.0302C28.6791 11.0499 28.6588 11.0777 28.6482 11.1095L28.5389 11.4377C28.5311 11.4612 28.5178 11.4827 28.5002 11.5002C28.4827 11.5178 28.4612 11.5311 28.4377 11.5389L28.1095 11.6482C28.0777 11.6588 28.0499 11.6791 28.0302 11.7064C28.0106 11.7336 28 11.7664 28 11.8C28 11.8336 28.0106 11.8664 28.0302 11.8936C28.0499 11.9209 28.0777 11.9412 28.1095 11.9518L28.4377 12.0612C28.4612 12.0691 28.4826 12.0823 28.5002 12.0998C28.5178 12.1174 28.531 12.1388 28.5389 12.1623L28.6482 12.4905C28.6588 12.5223 28.6791 12.5501 28.7064 12.5698C28.7336 12.5894 28.7664 12.6 28.8 12.6C28.8336 12.6 28.8664 12.5894 28.8936 12.5698C28.9209 12.5501 28.9412 12.5223 28.9518 12.4905L29.0611 12.1623C29.0689 12.1388 29.0822 12.1173 29.0998 12.0998C29.1173 12.0822 29.1388 12.0689 29.1623 12.0611L29.4905 11.9518C29.5223 11.9412 29.5501 11.9209 29.5698 11.8936C29.5894 11.8664 29.6 11.8336 29.6 11.8C29.6 11.7664 29.5894 11.7336 29.5698 11.7064C29.5501 11.6791 29.5223 11.6588 29.4905 11.6482L29.1623 11.5389C29.1388 11.5311 29.1173 11.5178 29.0998 11.5002C29.0822 11.4827 29.0689 11.4612 29.0611 11.4377L28.9518 11.1095Z" fill="white"/>
<path opacity="0.32" d="M18.5518 4.70955C18.5412 4.67766 18.5208 4.64991 18.4936 4.63025C18.4663 4.61059 18.4336 4.60001 18.4 4.60001C18.3664 4.60001 18.3336 4.61059 18.3064 4.63025C18.2791 4.64991 18.2588 4.67766 18.2482 4.70955L18.1389 5.03766C18.131 5.06125 18.1178 5.08268 18.1002 5.10026C18.0826 5.11783 18.0612 5.13107 18.0376 5.13892L17.7095 5.24819C17.6776 5.25878 17.6499 5.27915 17.6302 5.3064C17.6106 5.33365 17.6 5.3664 17.6 5.40001C17.6 5.43361 17.6106 5.46636 17.6302 5.49361C17.6499 5.52086 17.6776 5.54123 17.7095 5.55182L18.0376 5.66125C18.0612 5.66908 18.0826 5.6823 18.1002 5.69985C18.1178 5.7174 18.131 5.7388 18.1389 5.76235L18.2482 6.09047C18.2588 6.12236 18.2791 6.1501 18.3064 6.16976C18.3336 6.18942 18.3664 6.20001 18.4 6.20001C18.4336 6.20001 18.4663 6.18942 18.4936 6.16976C18.5208 6.1501 18.5412 6.12236 18.5518 6.09047L18.6611 5.76235C18.6689 5.73877 18.6821 5.71733 18.6997 5.69976C18.7173 5.68218 18.7387 5.66894 18.7623 5.66109L19.0904 5.55182C19.1223 5.54123 19.1501 5.52086 19.1697 5.49361C19.1894 5.46636 19.2 5.43361 19.2 5.40001C19.2 5.3664 19.1894 5.33365 19.1697 5.3064C19.1501 5.27915 19.1223 5.25878 19.0904 5.24819L18.7623 5.13892C18.7387 5.13107 18.7173 5.11783 18.6997 5.10026C18.6821 5.08268 18.6689 5.06125 18.6611 5.03766L18.5518 4.70955Z" fill="white"/>
<g opacity="0.55" filter="url(#filter2_f_1_35212)">
<path d="M24.9518 11.9095C24.9412 11.8776 24.9209 11.8499 24.8936 11.8302C24.8664 11.8106 24.8336 11.8 24.8 11.8C24.7664 11.8 24.7336 11.8106 24.7064 11.8302C24.6791 11.8499 24.6588 11.8776 24.6482 11.9095L24.5389 12.2376C24.5311 12.2612 24.5178 12.2827 24.5002 12.3002C24.4827 12.3178 24.4612 12.3311 24.4377 12.3389L24.1095 12.4482C24.0777 12.4588 24.0499 12.4791 24.0302 12.5064C24.0106 12.5336 24 12.5664 24 12.6C24 12.6336 24.0106 12.6663 24.0302 12.6936C24.0499 12.7208 24.0777 12.7412 24.1095 12.7518L24.4377 12.8612C24.4612 12.8691 24.4826 12.8823 24.5002 12.8998C24.5178 12.9174 24.531 12.9388 24.5389 12.9623L24.6482 13.2904C24.6588 13.3223 24.6791 13.3501 24.7064 13.3697C24.7336 13.3894 24.7664 13.4 24.8 13.4C24.8336 13.4 24.8664 13.3894 24.8936 13.3697C24.9209 13.3501 24.9412 13.3223 24.9518 13.2904L25.0611 12.9623C25.0689 12.9387 25.0822 12.9173 25.0998 12.8997C25.1173 12.8822 25.1388 12.8689 25.1623 12.8611L25.4905 12.7518C25.5223 12.7412 25.5501 12.7208 25.5698 12.6936C25.5894 12.6663 25.6 12.6336 25.6 12.6C25.6 12.5664 25.5894 12.5336 25.5698 12.5064C25.5501 12.4791 25.5223 12.4588 25.4905 12.4482L25.1623 12.3389C25.1388 12.3311 25.1173 12.3178 25.0998 12.3002C25.0822 12.2827 25.0689 12.2612 25.0611 12.2376L24.9518 11.9095Z" fill="white"/>
</g>
<g opacity="0.31" filter="url(#filter3_f_1_35212)">
<path d="M15.3518 11.9095C15.3412 11.8776 15.3208 11.8499 15.2936 11.8302C15.2663 11.8106 15.2336 11.8 15.2 11.8C15.1664 11.8 15.1336 11.8106 15.1064 11.8302C15.0791 11.8499 15.0587 11.8776 15.0481 11.9095L14.9389 12.2376C14.931 12.2612 14.9178 12.2827 14.9002 12.3002C14.8826 12.3178 14.8612 12.3311 14.8376 12.3389L14.5095 12.4482C14.4776 12.4588 14.4499 12.4791 14.4302 12.5064C14.4105 12.5336 14.4 12.5664 14.4 12.6C14.4 12.6336 14.4105 12.6663 14.4302 12.6936C14.4499 12.7208 14.4776 12.7412 14.5095 12.7518L14.8376 12.8612C14.8612 12.8691 14.8826 12.8823 14.9002 12.8998C14.9178 12.9174 14.931 12.9388 14.9389 12.9623L15.0481 13.2904C15.0587 13.3223 15.0791 13.3501 15.1064 13.3697C15.1336 13.3894 15.1664 13.4 15.2 13.4C15.2336 13.4 15.2663 13.3894 15.2936 13.3697C15.3208 13.3501 15.3412 13.3223 15.3518 13.2904L15.461 12.9623C15.4689 12.9387 15.4821 12.9173 15.4997 12.8997C15.5173 12.8822 15.5387 12.8689 15.5623 12.8611L15.8904 12.7518C15.9223 12.7412 15.9501 12.7208 15.9697 12.6936C15.9894 12.6663 16 12.6336 16 12.6C16 12.5664 15.9894 12.5336 15.9697 12.5064C15.9501 12.4791 15.9223 12.4588 15.8904 12.4482L15.5623 12.3389C15.5387 12.3311 15.5173 12.3178 15.4997 12.3002C15.4821 12.2827 15.4689 12.2612 15.461 12.2376L15.3518 11.9095Z" fill="white"/>
</g>
<g opacity="0.17" filter="url(#filter4_f_1_35212)">
<path d="M24.1518 4.70955C24.1412 4.67766 24.1209 4.64991 24.0936 4.63025C24.0664 4.61059 24.0336 4.60001 24 4.60001C23.9664 4.60001 23.9337 4.61059 23.9064 4.63025C23.8792 4.64991 23.8588 4.67766 23.8482 4.70955L23.7389 5.03766C23.7311 5.06125 23.7178 5.08268 23.7003 5.10026C23.6827 5.11783 23.6613 5.13107 23.6377 5.13892L23.3096 5.24819C23.2777 5.25878 23.2499 5.27915 23.2303 5.3064C23.2106 5.33365 23.2 5.3664 23.2 5.40001C23.2 5.43361 23.2106 5.46636 23.2303 5.49361C23.2499 5.52086 23.2777 5.54123 23.3096 5.55182L23.6377 5.66125C23.6612 5.66908 23.6827 5.6823 23.7002 5.69985C23.7178 5.7174 23.7311 5.7388 23.7389 5.76235L23.8482 6.09047C23.8588 6.12236 23.8792 6.1501 23.9064 6.16976C23.9337 6.18942 23.9664 6.20001 24 6.20001C24.0336 6.20001 24.0664 6.18942 24.0936 6.16976C24.1209 6.1501 24.1412 6.12236 24.1518 6.09047L24.2611 5.76235C24.2689 5.73877 24.2822 5.71733 24.2998 5.69976C24.3173 5.68218 24.3388 5.66894 24.3624 5.66109L24.6905 5.55182C24.7224 5.54123 24.7501 5.52086 24.7698 5.49361C24.7894 5.46636 24.8 5.43361 24.8 5.40001C24.8 5.3664 24.7894 5.33365 24.7698 5.3064C24.7501 5.27915 24.7224 5.25878 24.6905 5.24819L24.3624 5.13892C24.3388 5.13107 24.3173 5.11783 24.2998 5.10026C24.2822 5.08268 24.2689 5.06125 24.2611 5.03766L24.1518 4.70955Z" fill="white"/>
</g>
<path opacity="0.33" d="M8.95182 10.3095C8.94122 10.2776 8.92086 10.2499 8.89361 10.2302C8.86635 10.2106 8.8336 10.2 8.8 10.2C8.7664 10.2 8.73365 10.2106 8.70639 10.2302C8.67914 10.2499 8.65878 10.2776 8.64818 10.3095L8.53892 10.6376C8.53107 10.6612 8.51783 10.6827 8.50025 10.7002C8.48267 10.7178 8.46124 10.731 8.43765 10.7389L8.10954 10.8482C8.07765 10.8588 8.04991 10.8791 8.03024 10.9064C8.01058 10.9336 8 10.9664 8 11C8 11.0336 8.01058 11.0663 8.03024 11.0936C8.04991 11.1208 8.07765 11.1412 8.10954 11.1518L8.43765 11.2612C8.46122 11.2691 8.48264 11.2823 8.50022 11.2998C8.5178 11.3174 8.53105 11.3388 8.53892 11.3623L8.64818 11.6904C8.65878 11.7223 8.67914 11.7501 8.70639 11.7697C8.73365 11.7894 8.7664 11.8 8.8 11.8C8.8336 11.8 8.86635 11.7894 8.89361 11.7697C8.92086 11.7501 8.94122 11.7223 8.95182 11.6904L9.06108 11.3623C9.06893 11.3387 9.08217 11.3173 9.09975 11.2997C9.11733 11.2822 9.13876 11.2689 9.16235 11.2611L9.49046 11.1518C9.52235 11.1412 9.55009 11.1208 9.56976 11.0936C9.58942 11.0663 9.6 11.0336 9.6 11C9.6 10.9664 9.58942 10.9336 9.56976 10.9064C9.55009 10.8791 9.52235 10.8588 9.49046 10.8482L9.16235 10.7389C9.13876 10.731 9.11733 10.7178 9.09975 10.7002C9.08217 10.6827 9.06893 10.6612 9.06108 10.6376L8.95182 10.3095Z" fill="white"/>
<g opacity="0.47" filter="url(#filter5_f_1_35212)">
<path d="M2.55179 3.90953C2.5412 3.87764 2.52083 3.84989 2.49358 3.83023C2.46633 3.81057 2.43358 3.79999 2.39998 3.79999C2.36637 3.79999 2.33362 3.81057 2.30637 3.83023C2.27912 3.84989 2.25875 3.87764 2.24816 3.90953L2.13889 4.23764C2.13104 4.26123 2.1178 4.28266 2.10022 4.30024C2.08265 4.31782 2.06121 4.33105 2.03763 4.33891L1.70952 4.44817C1.67763 4.45876 1.64988 4.47913 1.63022 4.50638C1.61056 4.53363 1.59998 4.56638 1.59998 4.59999C1.59998 4.63359 1.61056 4.66634 1.63022 4.69359C1.64988 4.72084 1.67763 4.74121 1.70952 4.75181L2.03763 4.86123C2.0612 4.86906 2.08262 4.88228 2.1002 4.89983C2.11777 4.91738 2.13102 4.93878 2.13889 4.96234L2.24816 5.29045C2.25875 5.32234 2.27912 5.35008 2.30637 5.36974C2.33362 5.38941 2.36637 5.39999 2.39998 5.39999C2.43358 5.39999 2.46633 5.38941 2.49358 5.36974C2.52083 5.35008 2.5412 5.32234 2.55179 5.29045L2.66106 4.96234C2.66891 4.93875 2.68215 4.91732 2.69973 4.89974C2.7173 4.88216 2.73874 4.86892 2.76232 4.86107L3.09044 4.75181C3.12233 4.74121 3.15007 4.72084 3.16973 4.69359C3.18939 4.66634 3.19998 4.63359 3.19998 4.59999C3.19998 4.56638 3.18939 4.53363 3.16973 4.50638C3.15007 4.47913 3.12233 4.45876 3.09044 4.44817L2.76232 4.33891C2.73874 4.33105 2.7173 4.31782 2.69973 4.30024C2.68215 4.28266 2.66891 4.26123 2.66106 4.23764L2.55179 3.90953Z" fill="white"/>
</g>
<g opacity="0.21" filter="url(#filter6_f_1_35212)">
<path d="M22.5518 14.3095C22.5412 14.2776 22.5208 14.2499 22.4936 14.2302C22.4663 14.2106 22.4336 14.2 22.4 14.2C22.3664 14.2 22.3336 14.2106 22.3064 14.2302C22.2791 14.2499 22.2588 14.2776 22.2482 14.3095L22.1389 14.6376C22.131 14.6612 22.1178 14.6827 22.1002 14.7002C22.0826 14.7178 22.0612 14.731 22.0376 14.7389L21.7095 14.8482C21.6776 14.8588 21.6499 14.8791 21.6302 14.9064C21.6106 14.9336 21.6 14.9664 21.6 15C21.6 15.0336 21.6106 15.0663 21.6302 15.0936C21.6499 15.1208 21.6776 15.1412 21.7095 15.1518L22.0376 15.2612C22.0612 15.2691 22.0826 15.2823 22.1002 15.2998C22.1178 15.3174 22.131 15.3388 22.1389 15.3623L22.2482 15.6904C22.2588 15.7223 22.2791 15.7501 22.3064 15.7697C22.3336 15.7894 22.3664 15.8 22.4 15.8C22.4336 15.8 22.4663 15.7894 22.4936 15.7697C22.5208 15.7501 22.5412 15.7223 22.5518 15.6904L22.6611 15.3623C22.6689 15.3387 22.6821 15.3173 22.6997 15.2997C22.7173 15.2822 22.7387 15.2689 22.7623 15.2611L23.0904 15.1518C23.1223 15.1412 23.1501 15.1208 23.1697 15.0936C23.1894 15.0663 23.2 15.0336 23.2 15C23.2 14.9664 23.1894 14.9336 23.1697 14.9064C23.1501 14.8791 23.1223 14.8588 23.0904 14.8482L22.7623 14.7389C22.7387 14.731 22.7173 14.7178 22.6997 14.7002C22.6821 14.6827 22.6689 14.6612 22.6611 14.6376L22.5518 14.3095Z" fill="white"/>
</g>
<path opacity="0.17" d="M27.3518 16.7095C27.3412 16.6777 27.3208 16.6499 27.2936 16.6302C27.2663 16.6106 27.2336 16.6 27.2 16.6C27.1664 16.6 27.1336 16.6106 27.1064 16.6302C27.0791 16.6499 27.0587 16.6777 27.0481 16.7095L26.9389 17.0377C26.931 17.0612 26.9178 17.0827 26.9002 17.1003C26.8826 17.1178 26.8612 17.1311 26.8376 17.1389L26.5095 17.2482C26.4776 17.2588 26.4499 17.2791 26.4302 17.3064C26.4105 17.3337 26.4 17.3664 26.4 17.4C26.4 17.4336 26.4105 17.4664 26.4302 17.4936C26.4499 17.5209 26.4776 17.5412 26.5095 17.5518L26.8376 17.6612C26.8612 17.6691 26.8826 17.6823 26.9002 17.6998C26.9178 17.7174 26.931 17.7388 26.9389 17.7624L27.0481 18.0905C27.0587 18.1224 27.0791 18.1501 27.1064 18.1698C27.1336 18.1894 27.1664 18.2 27.2 18.2C27.2336 18.2 27.2663 18.1894 27.2936 18.1698C27.3208 18.1501 27.3412 18.1224 27.3518 18.0905L27.461 17.7624C27.4689 17.7388 27.4821 17.7173 27.4997 17.6998C27.5173 17.6822 27.5387 17.6689 27.5623 17.6611L27.8904 17.5518C27.9223 17.5412 27.9501 17.5209 27.9697 17.4936C27.9894 17.4664 28 17.4336 28 17.4C28 17.3664 27.9894 17.3337 27.9697 17.3064C27.9501 17.2791 27.9223 17.2588 27.8904 17.2482L27.5623 17.1389C27.5387 17.1311 27.5173 17.1178 27.4997 17.1003C27.4821 17.0827 27.4689 17.0612 27.461 17.0377L27.3518 16.7095Z" fill="white"/>
<g opacity="0.44" filter="url(#filter7_f_1_35212)">
<path d="M12.1518 9.50953C12.1412 9.47764 12.1209 9.4499 12.0936 9.43024C12.0664 9.41058 12.0336 9.39999 12 9.39999C11.9664 9.39999 11.9337 9.41058 11.9064 9.43024C11.8792 9.4499 11.8588 9.47764 11.8482 9.50953L11.7389 9.83765C11.7311 9.86123 11.7178 9.88267 11.7003 9.90024C11.6827 9.91782 11.6613 9.93106 11.6377 9.93891L11.3096 10.0482C11.2777 10.0588 11.2499 10.0791 11.2303 10.1064C11.2106 10.1336 11.2 10.1664 11.2 10.2C11.2 10.2336 11.2106 10.2663 11.2303 10.2936C11.2499 10.3209 11.2777 10.3412 11.3096 10.3518L11.6377 10.4612C11.6612 10.4691 11.6827 10.4823 11.7002 10.4998C11.7178 10.5174 11.7311 10.5388 11.7389 10.5623L11.8482 10.8905C11.8588 10.9223 11.8792 10.9501 11.9064 10.9698C11.9337 10.9894 11.9664 11 12 11C12.0336 11 12.0664 10.9894 12.0936 10.9698C12.1209 10.9501 12.1412 10.9223 12.1518 10.8905L12.2611 10.5623C12.2689 10.5388 12.2822 10.5173 12.2998 10.4997C12.3173 10.4822 12.3388 10.4689 12.3624 10.4611L12.6905 10.3518C12.7224 10.3412 12.7501 10.3209 12.7698 10.2936C12.7894 10.2663 12.8 10.2336 12.8 10.2C12.8 10.1664 12.7894 10.1336 12.7698 10.1064C12.7501 10.0791 12.7224 10.0588 12.6905 10.0482L12.3624 9.93891C12.3388 9.93106 12.3173 9.91782 12.2998 9.90024C12.2822 9.88267 12.2689 9.86123 12.2611 9.83765L12.1518 9.50953Z" fill="white"/>
</g>
<g opacity="0.41" filter="url(#filter8_f_1_35212)">
<path d="M15.3518 21.5095C15.3412 21.4776 15.3208 21.4499 15.2936 21.4302C15.2663 21.4106 15.2336 21.4 15.2 21.4C15.1664 21.4 15.1336 21.4106 15.1064 21.4302C15.0791 21.4499 15.0587 21.4776 15.0481 21.5095L14.9389 21.8376C14.931 21.8612 14.9178 21.8827 14.9002 21.9002C14.8826 21.9178 14.8612 21.9311 14.8376 21.9389L14.5095 22.0482C14.4776 22.0588 14.4499 22.0791 14.4302 22.1064C14.4105 22.1336 14.4 22.1664 14.4 22.2C14.4 22.2336 14.4105 22.2663 14.4302 22.2936C14.4499 22.3209 14.4776 22.3412 14.5095 22.3518L14.8376 22.4612C14.8612 22.4691 14.8826 22.4823 14.9002 22.4998C14.9178 22.5174 14.931 22.5388 14.9389 22.5623L15.0481 22.8905C15.0587 22.9223 15.0791 22.9501 15.1064 22.9698C15.1336 22.9894 15.1664 23 15.2 23C15.2336 23 15.2663 22.9894 15.2936 22.9698C15.3208 22.9501 15.3412 22.9223 15.3518 22.8905L15.461 22.5623C15.4689 22.5388 15.4821 22.5173 15.4997 22.4997C15.5173 22.4822 15.5387 22.4689 15.5623 22.4611L15.8904 22.3518C15.9223 22.3412 15.9501 22.3209 15.9697 22.2936C15.9894 22.2663 16 22.2336 16 22.2C16 22.1664 15.9894 22.1336 15.9697 22.1064C15.9501 22.0791 15.9223 22.0588 15.8904 22.0482L15.5623 21.9389C15.5387 21.9311 15.5173 21.9178 15.4997 21.9002C15.4821 21.8827 15.4689 21.8612 15.461 21.8376L15.3518 21.5095Z" fill="white"/>
</g>
<path opacity="0.09" d="M18.5518 15.1095C18.5412 15.0777 18.5208 15.0499 18.4936 15.0302C18.4663 15.0106 18.4336 15 18.4 15C18.3664 15 18.3336 15.0106 18.3064 15.0302C18.2791 15.0499 18.2588 15.0777 18.2482 15.1095L18.1389 15.4377C18.131 15.4612 18.1178 15.4827 18.1002 15.5002C18.0826 15.5178 18.0612 15.5311 18.0376 15.5389L17.7095 15.6482C17.6776 15.6588 17.6499 15.6791 17.6302 15.7064C17.6106 15.7336 17.6 15.7664 17.6 15.8C17.6 15.8336 17.6106 15.8664 17.6302 15.8936C17.6499 15.9209 17.6776 15.9412 17.7095 15.9518L18.0376 16.0612C18.0612 16.0691 18.0826 16.0823 18.1002 16.0998C18.1178 16.1174 18.131 16.1388 18.1389 16.1623L18.2482 16.4905C18.2588 16.5223 18.2791 16.5501 18.3064 16.5698C18.3336 16.5894 18.3664 16.6 18.4 16.6C18.4336 16.6 18.4663 16.5894 18.4936 16.5698C18.5208 16.5501 18.5412 16.5223 18.5518 16.4905L18.6611 16.1623C18.6689 16.1388 18.6821 16.1173 18.6997 16.0998C18.7173 16.0822 18.7387 16.0689 18.7623 16.0611L19.0904 15.9518C19.1223 15.9412 19.1501 15.9209 19.1697 15.8936C19.1894 15.8664 19.2 15.8336 19.2 15.8C19.2 15.7664 19.1894 15.7336 19.1697 15.7064C19.1501 15.6791 19.1223 15.6588 19.0904 15.6482L18.7623 15.5389C18.7387 15.5311 18.7173 15.5178 18.6997 15.5002C18.6821 15.4827 18.6689 15.4612 18.6611 15.4377L18.5518 15.1095Z" fill="white"/>
<path opacity="0.15" d="M34.5518 14.3095C34.5412 14.2776 34.5208 14.2499 34.4936 14.2302C34.4663 14.2106 34.4336 14.2 34.4 14.2C34.3664 14.2 34.3336 14.2106 34.3064 14.2302C34.2791 14.2499 34.2588 14.2776 34.2482 14.3095L34.1389 14.6376C34.131 14.6612 34.1178 14.6827 34.1002 14.7002C34.0826 14.7178 34.0612 14.731 34.0376 14.7389L33.7095 14.8482C33.6776 14.8588 33.6499 14.8791 33.6302 14.9064C33.6106 14.9336 33.6 14.9664 33.6 15C33.6 15.0336 33.6106 15.0663 33.6302 15.0936C33.6499 15.1208 33.6776 15.1412 33.7095 15.1518L34.0376 15.2612C34.0612 15.2691 34.0826 15.2823 34.1002 15.2998C34.1178 15.3174 34.131 15.3388 34.1389 15.3623L34.2482 15.6904C34.2588 15.7223 34.2791 15.7501 34.3064 15.7697C34.3336 15.7894 34.3664 15.8 34.4 15.8C34.4336 15.8 34.4663 15.7894 34.4936 15.7697C34.5208 15.7501 34.5412 15.7223 34.5518 15.6904L34.6611 15.3623C34.6689 15.3387 34.6821 15.3173 34.6997 15.2997C34.7173 15.2822 34.7387 15.2689 34.7623 15.2611L35.0904 15.1518C35.1223 15.1412 35.1501 15.1208 35.1697 15.0936C35.1894 15.0663 35.2 15.0336 35.2 15C35.2 14.9664 35.1894 14.9336 35.1697 14.9064C35.1501 14.8791 35.1223 14.8588 35.0904 14.8482L34.7623 14.7389C34.7387 14.731 34.7173 14.7178 34.6997 14.7002C34.6821 14.6827 34.6689 14.6612 34.6611 14.6376L34.5518 14.3095Z" fill="white"/>
</g>
<g filter="url(#filter9_f_1_35212)">
<path d="M4 14H36L29.0435 43H10.9565L4 14Z" fill="url(#paint0_linear_1_35212)" fill-opacity="0.4"/>
</g>
<g filter="url(#filter10_d_1_35212)">
<path d="M10.88 25.054C12.2562 18.9647 15.1966 13.3396 19.411 8.734C19.4859 8.65248 19.577 8.5874 19.6784 8.54288C19.7797 8.49836 19.8893 8.47537 20 8.47537C20.1107 8.47537 20.2203 8.49836 20.3216 8.54288C20.423 8.5874 20.5141 8.65248 20.589 8.734C20.755 8.914 20.893 9.066 21.002 9.189C24.9986 13.7109 27.7906 19.1674 29.12 25.054C26.979 25.505 24.78 25.801 22.536 25.928L20.447 30.106C20.4054 30.1889 20.3416 30.2587 20.2627 30.3074C20.1837 30.3562 20.0928 30.382 20 30.382C19.9072 30.382 19.8163 30.3562 19.7373 30.3074C19.6584 30.2587 19.5946 30.1889 19.553 30.106L17.464 25.928C15.2505 25.8029 13.0495 25.5107 10.88 25.054ZM20 22C20.7957 22 21.5587 21.6839 22.1213 21.1213C22.6839 20.5587 23 19.7957 23 19C23 18.2044 22.6839 17.4413 22.1213 16.8787C21.5587 16.3161 20.7957 16 20 16C19.2044 16 18.4413 16.3161 17.8787 16.8787C17.3161 17.4413 17 18.2044 17 19C17 19.7957 17.3161 20.5587 17.8787 21.1213C18.4413 21.6839 19.2044 22 20 22Z" fill="url(#paint1_radial_1_35212)" shape-rendering="crispEdges"/>
<path d="M20.8149 9.35481C24.7273 13.7816 27.4773 19.1103 28.8192 24.8611C26.7691 25.2805 24.6662 25.557 22.5219 25.6784L22.3772 25.6866L22.3124 25.8162L20.2235 29.994C20.2027 30.0355 20.1708 30.0703 20.1313 30.0947C20.0919 30.1191 20.0464 30.132 20 30.132C19.9536 30.132 19.9081 30.1191 19.8687 30.0947C19.8292 30.0703 19.7973 30.0355 19.7765 29.994L17.6876 25.8162L17.6228 25.6866L17.4781 25.6784C15.3619 25.5588 13.2573 25.2856 11.1808 24.8611C12.5706 18.9097 15.4675 13.414 19.5951 8.90312C19.6466 8.8471 19.7092 8.80238 19.7789 8.77178C19.8486 8.74118 19.9239 8.72537 20 8.72537C20.0761 8.72537 20.1514 8.74118 20.2211 8.77178C20.2908 8.80239 20.3534 8.84713 20.4049 8.90318L20.4052 8.90349C20.5706 9.08282 20.7074 9.2335 20.8149 9.35481ZM20 22.25C20.862 22.25 21.6886 21.9076 22.2981 21.2981C22.9076 20.6886 23.25 19.862 23.25 19C23.25 18.1381 22.9076 17.3114 22.2981 16.7019C21.6886 16.0924 20.862 15.75 20 15.75C19.1381 15.75 18.3114 16.0924 17.7019 16.7019C17.0924 17.3114 16.75 18.1381 16.75 19C16.75 19.862 17.0924 20.6886 17.7019 21.2981C18.3114 21.9076 19.1381 22.25 20 22.25Z" stroke="url(#paint2_linear_1_35212)" stroke-width="0.5" shape-rendering="crispEdges"/>
</g>
</g>
<rect x="4.5" y="3.5" width="31" height="31" rx="15.5" stroke="url(#paint3_linear_1_35212)" stroke-opacity="0.3"/>
</g>
<defs>
<filter id="filter0_dd_1_35212" x="0" y="0" width="40" height="41" filterUnits="userSpaceOnUse" color-interpolation-filters="sRGB">
<feFlood flood-opacity="0" result="BackgroundImageFix"/>
<feColorMatrix in="SourceAlpha" type="matrix" values="0 0 0 0 0 0 0 0 0 0 0 0 0 0 0 0 0 0 127 0" result="hardAlpha"/>
<feMorphology radius="3" operator="dilate" in="SourceAlpha" result="effect1_dropShadow_1_35212"/>
<feOffset/>
<feComposite in2="hardAlpha" operator="out"/>
<feColorMatrix type="matrix" values="0 0 0 0 0.109804 0 0 0 0 1 0 0 0 0 1 0 0 0 0.17 0"/>
<feBlend mode="normal" in2="BackgroundImageFix" result="effect1_dropShadow_1_35212"/>
<feColorMatrix in="SourceAlpha" type="matrix" values="0 0 0 0 0 0 0 0 0 0 0 0 0 0 0 0 0 0 127 0" result="hardAlpha"/>
<feMorphology radius="1" operator="erode" in="SourceAlpha" result="effect2_dropShadow_1_35212"/>
<feOffset dy="2"/>
<feGaussianBlur stdDeviation="2.5"/>
<feComposite in2="hardAlpha" operator="out"/>
<feColorMatrix type="matrix" values="0 0 0 0 0.161857 0 0 0 0 0.171682 0 0 0 0 0.197884 0 0 0 0.5 0"/>
<feBlend mode="normal" in2="effect1_dropShadow_1_35212" result="effect2_dropShadow_1_35212"/>
<feBlend mode="normal" in="SourceGraphic" in2="effect2_dropShadow_1_35212" result="shape"/>
</filter>
<filter id="filter1_f_1_35212" x="28.6" y="2.79999" width="3.59998" height="3.60001" filterUnits="userSpaceOnUse" color-interpolation-filters="sRGB">
<feFlood flood-opacity="0" result="BackgroundImageFix"/>
<feBlend mode="normal" in="SourceGraphic" in2="BackgroundImageFix" result="shape"/>
<feGaussianBlur stdDeviation="0.5" result="effect1_foregroundBlur_1_35212"/>
</filter>
<filter id="filter2_f_1_35212" x="23" y="10.8" width="3.59998" height="3.60001" filterUnits="userSpaceOnUse" color-interpolation-filters="sRGB">
<feFlood flood-opacity="0" result="BackgroundImageFix"/>
<feBlend mode="normal" in="SourceGraphic" in2="BackgroundImageFix" result="shape"/>
<feGaussianBlur stdDeviation="0.5" result="effect1_foregroundBlur_1_35212"/>
</filter>
<filter id="filter3_f_1_35212" x="13.4" y="10.8" width="3.59998" height="3.60001" filterUnits="userSpaceOnUse" color-interpolation-filters="sRGB">
<feFlood flood-opacity="0" result="BackgroundImageFix"/>
<feBlend mode="normal" in="SourceGraphic" in2="BackgroundImageFix" result="shape"/>
<feGaussianBlur stdDeviation="0.5" result="effect1_foregroundBlur_1_35212"/>
</filter>
<filter id="filter4_f_1_35212" x="22.2" y="3.60001" width="3.59998" height="3.60001" filterUnits="userSpaceOnUse" color-interpolation-filters="sRGB">
<feFlood flood-opacity="0" result="BackgroundImageFix"/>
<feBlend mode="normal" in="SourceGraphic" in2="BackgroundImageFix" result="shape"/>
<feGaussianBlur stdDeviation="0.5" result="effect1_foregroundBlur_1_35212"/>
</filter>
<filter id="filter5_f_1_35212" x="0.599976" y="2.79999" width="3.59998" height="3.60001" filterUnits="userSpaceOnUse" color-interpolation-filters="sRGB">
<feFlood flood-opacity="0" result="BackgroundImageFix"/>
<feBlend mode="normal" in="SourceGraphic" in2="BackgroundImageFix" result="shape"/>
<feGaussianBlur stdDeviation="0.5" result="effect1_foregroundBlur_1_35212"/>
</filter>
<filter id="filter6_f_1_35212" x="20.6" y="13.2" width="3.59998" height="3.60001" filterUnits="userSpaceOnUse" color-interpolation-filters="sRGB">
<feFlood flood-opacity="0" result="BackgroundImageFix"/>
<feBlend mode="normal" in="SourceGraphic" in2="BackgroundImageFix" result="shape"/>
<feGaussianBlur stdDeviation="0.5" result="effect1_foregroundBlur_1_35212"/>
</filter>
<filter id="filter7_f_1_35212" x="10.2" y="8.39999" width="3.59998" height="3.60001" filterUnits="userSpaceOnUse" color-interpolation-filters="sRGB">
<feFlood flood-opacity="0" result="BackgroundImageFix"/>
<feBlend mode="normal" in="SourceGraphic" in2="BackgroundImageFix" result="shape"/>
<feGaussianBlur stdDeviation="0.5" result="effect1_foregroundBlur_1_35212"/>
</filter>
<filter id="filter8_f_1_35212" x="13.4" y="20.4" width="3.59998" height="3.60001" filterUnits="userSpaceOnUse" color-interpolation-filters="sRGB">
<feFlood flood-opacity="0" result="BackgroundImageFix"/>
<feBlend mode="normal" in="SourceGraphic" in2="BackgroundImageFix" result="shape"/>
<feGaussianBlur stdDeviation="0.5" result="effect1_foregroundBlur_1_35212"/>
</filter>
<filter id="filter9_f_1_35212" x="2" y="12" width="36" height="33" filterUnits="userSpaceOnUse" color-interpolation-filters="sRGB">
<feFlood flood-opacity="0" result="BackgroundImageFix"/>
<feBlend mode="normal" in="SourceGraphic" in2="BackgroundImageFix" result="shape"/>
<feGaussianBlur stdDeviation="1" result="effect1_foregroundBlur_1_35212"/>
</filter>
<filter id="filter10_d_1_35212" x="3.88" y="4.47537" width="32.24" height="35.9066" filterUnits="userSpaceOnUse" color-interpolation-filters="sRGB">
<feFlood flood-opacity="0" result="BackgroundImageFix"/>
<feColorMatrix in="SourceAlpha" type="matrix" values="0 0 0 0 0 0 0 0 0 0 0 0 0 0 0 0 0 0 127 0" result="hardAlpha"/>
<feOffset dy="3"/>
<feGaussianBlur stdDeviation="3.5"/>
<feComposite in2="hardAlpha" operator="out"/>
<feColorMatrix type="matrix" values="0 0 0 0 0 0 0 0 0 0 0 0 0 0 0 0 0 0 0.18 0"/>
<feBlend mode="normal" in2="BackgroundImageFix" result="effect1_dropShadow_1_35212"/>
<feBlend mode="normal" in="SourceGraphic" in2="effect1_dropShadow_1_35212" result="shape"/>
</filter>
<linearGradient id="paint0_linear_1_35212" x1="20" y1="14" x2="19.5156" y2="38.0006" gradientUnits="userSpaceOnUse">
<stop stop-color="#597AB9" stop-opacity="0"/>
<stop offset="1" stop-color="#00F8FF"/>
</linearGradient>
<radialGradient id="paint1_radial_1_35212" cx="0" cy="0" r="1" gradientUnits="userSpaceOnUse" gradientTransform="translate(20 7.4322) rotate(90) scale(38.0758 31.7029)">
<stop stop-color="white"/>
<stop offset="1" stop-color="white" stop-opacity="0"/>
</radialGradient>
<linearGradient id="paint2_linear_1_35212" x1="20" y1="8.47537" x2="20" y2="30.382" gradientUnits="userSpaceOnUse">
<stop offset="0.735221" stop-color="white" stop-opacity="0"/>
<stop offset="1" stop-color="white" stop-opacity="0.8"/>
</linearGradient>
<linearGradient id="paint3_linear_1_35212" x1="20" y1="3" x2="20" y2="35" gradientUnits="userSpaceOnUse">
<stop stop-color="white"/>
<stop offset="0.510417" stop-color="white" stop-opacity="0"/>
</linearGradient>
<clipPath id="clip0_1_35212">
<rect x="4" y="3" width="32" height="32" rx="16" fill="white"/>
</clipPath>
</defs>
</svg>
