<svg width="16" height="16" viewBox="0 0 16 16" fill="none" xmlns="http://www.w3.org/2000/svg">
<path d="M3.00004 14.6667V11.3333M3.00004 4.66668V1.33334M1.33337 3.00001H4.66671M1.33337 13H4.66671M8.66671 2.00001L7.51059 5.00592C7.32258 5.49474 7.22858 5.73915 7.08239 5.94473C6.95283 6.12694 6.79364 6.28614 6.61143 6.4157C6.40585 6.56188 6.16143 6.65588 5.67261 6.84389L2.66671 8.00001L5.67262 9.15613C6.16144 9.34414 6.40585 9.43814 6.61143 9.58432C6.79364 9.71388 6.95283 9.87308 7.08239 10.0553C7.22858 10.2609 7.32258 10.5053 7.51059 10.9941L8.66671 14L9.82283 10.9941C10.0108 10.5053 10.1048 10.2609 10.251 10.0553C10.3806 9.87308 10.5398 9.71388 10.722 9.58432C10.9276 9.43814 11.172 9.34414 11.6608 9.15613L14.6667 8.00001L11.6608 6.84389C11.172 6.65588 10.9276 6.56188 10.722 6.4157C10.5398 6.28614 10.3806 6.12694 10.251 5.94473C10.1048 5.73915 10.0108 5.49474 9.82283 5.00592L8.66671 2.00001Z" stroke="white" stroke-linecap="round" stroke-linejoin="round"/>
</svg>
